# AST/ASF file generated using VICON BodyLanguage
# -----------------------------------------------
:version 1.10
:name VICON
:units
  mass 1.0
  length 0.45
  angle deg
:documentation
   .ast/.asf automatically generated from VICON data using
   VICON BodyBuilder and BodyLanguage model FoxedUp or BRILLIANT.MOD
:root
   order TX TY TZ RX RY RZ
   axis XYZ
   position 0 0 0  
   orientation 0 0 0 
:bonedata
  begin
     id 1 
     name lhipjoint
     direction 0.662698 -0.695252 0.27831 
     length 2.53073 
     axis 0 0 0  XYZ
  end
  begin
     id 2 
     name lfemur
     direction 0.34202 -0.939693 0  
     length 7.16147  
     axis 0 0 20  XYZ
    dof rx ry rz
    limits (-160.0 20.0)
           (-70.0 70.0)
           (-60.0 70.0)
  end
  begin
     id 3 
     name ltibia
     direction 0.34202 -0.939693 0   
     length 7.63967   
     axis 0 0 20   XYZ
    dof rx
    limits (-10.0 170.0)
  end
  begin
     id 4 
     name lfoot
     direction 0.0938457 -0.257721 0.961651   
     length 1.89793   
     axis -90 7.62852e-016 20   XYZ
    dof rx rz
    limits (-45.0 90.0)
           (-70.0 20.0)
  end
  begin
     id 5 
     name ltoes
     direction -0.00116841 -0.0030592 0.999995   
     length 0.955649   
     axis -90 7.62852e-016 20   XYZ
    dof rx
    limits (-90.0 20.0)
  end
  begin
     id 6 
     name rhipjoint
     direction -0.649445 -0.705948 0.282592   
     length 2.49238  
     axis 0 0 0  XYZ 
  end
  begin
     id 7 
     name rfemur
     direction -0.34202 -0.939693 0   
     length 6.90728   
     axis 0 0 -20   XYZ
    dof rx ry rz
    limits (-160.0 20.0)
           (-70.0 70.0)
           (-70.0 60.0)
  end
  begin
     id 8 
     name rtibia
     direction -0.34202 -0.939693 0   
     length 7.72868   
     axis 0 0 -20   XYZ
    dof rx
    limits (-10.0 170.0)
 end
 begin
     id 9 
     name rfoot
     direction -0.0920068 -0.252865 0.963117   
     length 1.97476  
     axis -90 -7.62852e-016 -20   XYZ
    dof rx rz
    limits (-45.0 90.0)
           (-20.0 70.0)
  end
  begin
     id 10 
     name rtoes
     direction 0.000391322 0.00230649 0.999997   
     length 0.992641   
     axis -90 -7.62852e-016 -20   XYZ
    dof rx
    limits (-90.0 20.0)
  end
  begin
     id 11 
     name lowerback
     direction -0.00875327 0.998321 -0.0572635   
     length 2.20024   
     axis 0 0 0   XYZ
    dof rx ry rz
    limits (-20.0 45.0)
           (-30.0 30.0)
           (-30.0 30.0)
  end
  begin
     id 12 
     name upperback
     direction 0.00753931 0.999972 -0.000360425   
     length 2.20538   
     axis 0 0 0   XYZ
    dof rx ry rz
    limits (-20.0 45.0)
           (-30.0 30.0)
           (-30.0 30.0)
  end
  begin
     id 13 
     name thorax
     direction 0.0117767 0.999601 0.0256663   
     length 2.21508   
     axis 0 0 0   XYZ
    dof rx ry rz
    limits (-20.0 45.0)
           (-30.0 30.0)
           (-30.0 30.0)
  end
  begin
     id 14 
     name lowerneck
     direction 0.060228 0.994909 0.0807986   
     length 1.7607   
     axis 0 0 0   XYZ
    dof rx ry rz
    limits (-20.0 45.0)
           (-30.0 30.0)
           (-30.0 30.0)
  end
  begin
     id 15 
     name upperneck
     direction -0.0563647 0.959594 -0.275685   
     length 1.75612   
     axis 0 0 0   XYZ
    dof rx ry rz
    limits (-20.0 45.0)
           (-30.0 30.0)
           (-30.0 30.0)
  end
  begin
     id 16
     name head
     direction -0.0161544 0.99458 -0.102714  
     length 1.79288  
     axis 0 0 0   XYZ
    dof rx ry rz
    limits (-20.0 45.0)
           (-30.0 30.0)
           (-30.0 30.0)
  end
  begin
     id 17 
     name lclavicle
     direction 0.93913 0.332189 -0.087669  
     length 3.52087  
     axis 0 0 0   XYZ
    dof ry rz
    limits (-20.0 10.0)
           (0.0 20.0)
  end
  begin
     id 18 
     name lhumerus
     direction 1 -4.48974e-011 -2.70836e-027   
     length 5.35289   
     axis -180 -30 -90   XYZ
    dof rx ry rz
    limits (-60.0 90.0)
           (-90.0 90.0)
           (-90.0 90.0)
  end
  begin
     id 19
     name lradius
     direction 1 -4.48961e-011 -9.76021e-027   
     length 3.27727   
     axis -180 -30 -90   XYZ
    dof rx
    limits (-10.0 170.0)
  end
  begin
     id 20
     name lwrist
     direction 1 -4.49103e-011 -2.23668e-026   
     length 1.63864   
     axis 1.44924e-014 90 90   XYZ
    dof ry
    limits (-180.0 0.0)
 end
  begin
     id 21 
     name lhand
     direction 1 3.0697e-005 0.000161777   
     length 0.54443   
     axis 2.85318e-014 90 90   XYZ
    dof rx rz
    limits (-90.0 90.0)
           (-45.0 45.0)
  end
  begin
     id 22 
     name lfingers
     direction 1 -4.49027e-011 -8.9447e-026   
     length 0.438912   
     axis 5.70628e-014 90 90   XYZ
    dof rx
    limits (0.0 90.0)
  end
  begin
     id 23
     name lthumb
     direction 0.707058 2.6516e-005 0.707156   
     length 0.630274   
     axis -90 45 -3.53137e-014   XYZ
    dof rx rz
    limits (-45.0 45.0)
           (-45.0 45.0)
  end
  begin
     id 24 
     name rclavicle
     direction -0.95274 0.284984 -0.105215   
     length 3.43401  
     axis 0 0 0   XYZ 
    dof ry rz
    limits (-10.0 20.0)
           (-20.0 0.0)
  end
  begin
     id 25 
     name rhumerus
     direction -0.999999 -0.000575019 -0.00106829  
     length 5.52077   
     axis -180 30 90   XYZ
    dof rx ry rz
    limits (-90.0 60.0)
           (-90.0 90.0)
           (-90.0 90.0)
  end
  begin
     id 26 
     name rradius
     direction -1 -4.4879e-011 -6.35415e-027   
     length 3.32364   
     axis -180 30 90   XYZ
    dof rx
    limits (-10.0 170.0)
  end
  begin
     id 27 
     name rwrist
     direction -1 -4.49048e-011 -9.98542e-027   
     length 1.66182   
     axis 6.32482e-015 -90 -90   XYZ
    dof ry
    limits (-180.0 0.0)
  end
  begin
     id 28
     name rhand
     direction -1 -4.48978e-011 -1.99771e-026   
     length 0.732235   
     axis 1.27479e-014 -90 -90   XYZ
    dof rx rz
    limits (-90.0 90.0)
           (-45.0 45.0)
  end
  begin
     id 29
     name rfingers
     direction -1 -4.49144e-011 -3.99245e-026   
     length 0.590347   
     axis 2.5496e-014 -90 -90   XYZ
    dof rx
    limits (0.0 90.0)
  end
  begin
     id 30
     name rthumb
     direction -0.707107 -6.35121e-011 0.707107   
     length 0.847624   
     axis -90 -45 -2.82974e-014   XYZ
    dof rx rz
    limits (-45.0 45.0)
           (-45.0 45.0)
  end
:hierarchy
  begin
    root lhipjoint rhipjoint lowerback
    lhipjoint lfemur
    lfemur ltibia
    ltibia lfoot
    lfoot ltoes
    rhipjoint rfemur
    rfemur rtibia
    rtibia rfoot
    rfoot rtoes
    lowerback upperback
    upperback thorax
    thorax lowerneck lclavicle rclavicle
    lowerneck upperneck
    upperneck head
    lclavicle lhumerus
    lhumerus lradius
    lradius lwrist
    lwrist lhand lthumb
    lhand lfingers
    rclavicle rhumerus
    rhumerus rradius
    rradius rwrist
    rwrist rhand rthumb
    rhand rfingers
  end

#!OML:ASF G:\Work\Work\Patient Classification 1\Elijah\terrain1\Elijah.ASF
:FULLY-SPECIFIED
:DEGREES
2657
root -5.95955 17.9377 -3.80846 363.395 0.227053 -361.276
lowerback 4.50458 -1.07646 -1.638
upperback 1.83138 -1.49962 0.169176
thorax -0.597313 -0.756102 1.16496
lowerneck -10.2436 13.1242 11.9172
upperneck 29.7062 20.8822 -13.2698
head 14.7999 8.9938 -3.68939
rclavicle 9.54166e-015 1.15295e-014
rhumerus -42.5747 3.58894 -85.8353
rradius 31.1314
rwrist 2.49031
rhand -7.86577 26.4237
rfingers 7.12502
rthumb 18.038 -2.75989
lclavicle 9.54166e-015 1.15295e-014
lhumerus -35.7535 1.86825 77.4623
lradius 35.9493
lwrist -3.09662
lhand -17.0713 29.1548
lfingers 7.12502
lthumb 9.16654 58.9356
rfemur -26.687 -9.33322 15.0997
rtibia 103.348
rfoot 4.77819 8.36249
rtoes -19.9504
lfemur -26.2662 6.49758 -24.6111
ltibia 45.8273
lfoot -2.70911 -10.255
ltoes -21.1196
2658
root -5.94928 17.9842 -3.71213 363.294 0.864203 -360.309
lowerback 3.95402 -1.03049 -2.03127
upperback 2.54893 -1.43511 -0.611198
thorax 0.434006 -0.736305 0.561276
lowerneck -11.222 13.0832 11.553
upperneck 29.9932 20.5884 -12.5022
head 14.9245 8.8455 -3.33007
rclavicle -6.95746e-016 -2.38542e-015
rhumerus -41.852 3.19816 -86.6549
rradius 31.9177
rwrist 3.44146
rhand -7.74302 26.8468
rfingers 7.12502
rthumb 18.1561 -2.32578
lclavicle -6.95746e-016 -2.38542e-015
lhumerus -34.1956 0.09442 77.8334
lradius 37.9225
lwrist -1.74449
lhand -17.4328 28.771
lfingers 7.12502
lthumb 8.8177 58.5668
rfemur -28.713 -10.6708 14.372
rtibia 105.114
rfoot 2.82655 8.78956
rtoes -29.0013
lfemur -25.2406 5.54026 -25.5557
ltibia 44.6939
lfoot -2.09754 -10.1155
ltoes -20.5422
2659
root -5.94338 18.0312 -3.61636 363.165 1.59231 -359.576
lowerback 5.20389 -1.36966 -3.59437
upperback 1.92934 -2.00183 -0.249609
thorax -0.81563 -1.0099 1.87247
lowerneck -9.76052 13.5256 11.077
upperneck 30.289 21.6121 -12.6591
head 14.8695 9.28844 -3.20522
rclavicle 1.09332e-014 -3.97569e-016
rhumerus -43.2529 5.24474 -86.775
rradius 33.2809
rwrist 3.6922
rhand -7.4728 26.761
rfingers 7.12502
rthumb 18.416 -2.38729
lclavicle 1.09332e-014 -3.97569e-016
lhumerus -35.3422 0.144247 78.9547
lradius 40.3178
lwrist -0.438499
lhand -17.3435 28.0561
lfingers 7.12502
lthumb 8.90392 57.8483
rfemur -30.7391 -12.0487 14.0673
rtibia 106.6
rfoot 1.54691 8.65355
rtoes -21.1999
lfemur -24.2044 4.53262 -26.2195
ltibia 43.6138
lfoot -1.48429 -9.99372
ltoes -18.6319
2660
root -5.9312 18.0732 -3.52955 363.196 2.31032 -359.246
lowerback 5.25675 -2.21878 -5.02279
upperback 1.58246 -3.20423 0.533722
thorax -1.00476 -1.60583 3.55015
lowerneck -7.87285 13.7029 10.8079
upperneck 29.9104 22.3892 -13.8019
head 14.5722 9.5981 -3.5893
rclavicle -2.37796e-014 -2.5842e-015
rhumerus -44.2341 8.89199 -87.04
rradius 34.622
rwrist 3.59639
rhand -7.24509 26.5109
rfingers 7.12502
rthumb 18.6351 -2.61648
lclavicle -2.37796e-014 -2.5842e-015
lhumerus -36.8643 2.00808 79.8782
lradius 42.9626
lwrist 0.838909
lhand -17.1055 27.5594
lfingers 7.12502
lthumb 9.13352 57.3416
rfemur -33.0008 -13.3417 14.3518
rtibia 107.859
rfoot -0.120608 8.69787
rtoes -18.9748
lfemur -23.4226 3.5827 -26.5017
ltibia 42.5938
lfoot -0.86051 -9.87683
ltoes -16.2852
2661
root -5.92184 18.0999 -3.45955 363.585 2.03439 -359.068
lowerback 4.95901 -0.954895 -3.57203
upperback 2.5594 -1.42786 -1.01335
thorax -0.0848821 -0.738895 1.03098
lowerneck -10.6366 13.5421 11.8735
upperneck 30.2742 21.4236 -12.754
head 15.1547 9.2285 -3.33476
rclavicle 1.51076e-014 2.0276e-014
rhumerus -42.5814 4.17574 -87.4075
rradius 35.2748
rwrist 4.51113
rhand -8.31287 26.7981
rfingers 7.12502
rthumb 17.6078 -2.4246
lclavicle 1.51076e-014 2.0276e-014
lhumerus -33.6415 -3.41178 80.0787
lradius 44.9079
lwrist 2.94212
lhand -17.3784 26.5866
lfingers 7.12502
lthumb 8.87023 56.3802
rfemur -36.2499 -13.4225 15.1405
rtibia 109.172
rfoot -3.1885 7.72571
rtoes -25.746
lfemur -23.1661 3.49781 -26.7023
ltibia 41.6703
lfoot -0.422151 -9.60503
ltoes -14.6811
2662
root -5.91742 18.1347 -3.36832 363.643 2.08653 -358.665
lowerback 5.11968 -0.920294 -4.29259
upperback 2.49033 -1.4235 -1.00465
thorax -0.225764 -0.739473 1.44651
lowerneck -10.0471 13.5374 12.1292
upperneck 30.1246 21.5295 -13.1563
head 15.0769 9.29803 -3.55026
rclavicle 1.2424e-014 2.38542e-015
rhumerus -42.9102 4.72639 -87.4997
rradius 36.0714
rwrist 4.17264
rhand -8.84031 26.542
rfingers 7.12502
rthumb 17.1002 -2.72544
lclavicle 1.2424e-014 2.38542e-015
lhumerus -33.8616 -4.15833 80.7668
lradius 47.4223
lwrist 4.41399
lhand -17.1875 25.8404
lfingers 7.12502
lthumb 9.0544 55.6261
rfemur -38.7006 -13.7733 15.5845
rtibia 110.128
rfoot -2.31487 6.72922
rtoes -15.6841
lfemur -22.457 3.1999 -27.0804
ltibia 40.8874
lfoot -0.192014 -9.4615
ltoes -13.7459
